<svg xmlns="http://www.w3.org/2000/svg" viewBox="0 0 512 512" width="512" height="512"><defs><filter id="shadow-1" height="300%" width="300%" x="-100%" y="-100%"><feFlood flood-color="#999" result="flood"></feFlood><feComposite in="flood" in2="SourceGraphic" operator="atop" result="composite"></feComposite><feGaussianBlur in="composite" stdDeviation="2" result="blur"></feGaussianBlur><feOffset result="offset"></feOffset><feComposite in="SourceGraphic" in2="offset" operator="over"></feComposite></filter></defs><g class="" style="" transform="translate(0,0)"><path d="m494 18.02-101 .103V119h101zm-119 .12-56.29 12.065-31.01 64.361-101.534-35.952L137 119h238zM18 137v61.63l12.416 31.981L62.575 247H247V137zm247 0v110h229V137zM76.294 322.591 18 332.203V375h101V265H65.317zM137 265v110h238c-48.428-109.932-.057-1.24-48.222-110zM18 393v100.98l199-.236L247 393zm247 0v55.79c66.067 45.222-.134-.028 65.798 44.869L494 493.49V393z" fill="#d0641c" fill-opacity="1" filter="url(#shadow-1)"></path></g></svg>