<svg xmlns="http://www.w3.org/2000/svg" viewBox="0 0 512 512" width="512" height="512"><defs><filter id="shadow-1" height="300%" width="300%" x="-100%" y="-100%"><feFlood flood-color="#999" result="flood"></feFlood><feComposite in="flood" in2="SourceGraphic" operator="atop" result="composite"></feComposite><feGaussianBlur in="composite" stdDeviation="2" result="blur"></feGaussianBlur><feOffset result="offset"></feOffset><feComposite in="SourceGraphic" in2="offset" operator="over"></feComposite></filter></defs><g class="" style="" transform="translate(0,0)"><path d="m494 18.02-101 .103V119h101zm-119 .12-238 .247V119h238zm-256 .266L18 18.51V119h101zM18 137v110h229V137zm247 0v110h229V137zM18 265v110h101V265zm119 0v110h238V265zm256 0v110h101V265zM18 393v100.98l229-.236V393zm247 0v100.727l229-.237V393z" fill="#d0641c" fill-opacity="1" filter="url(#shadow-1)"></path></g></svg>